PathFileType	4	(X/Y/Z)	c:/Users/goper/Files/vsCode/490R/osim_files/C04/C04_Fast_02.trc
DataRate	CameraRate	NumFrames	NumMarkers	Units                	OrigDataRate	OrigDataStartFrame	OrigNumFrames
250.00	250.00	9	36	mm	250.0	1106	2947
                Frame#	Time	LPSIS			LASIS			LTH1			LTH2			LTH3			LTH4			LLFE			LMFE			LSH1			LSH2			LSH3			LSH4			LLMAL			LMMAL			LCAL			LMTP5			LTOE			LMTP1			RPSIS			RASIS			RTH1			RTH2			RTH3			RTH4			RLFE			RMFE			RSH1			RSH2			RSH3			RSH4			RLMAL			RMMAL			RCAL			RMTP1			RTOE			RMTP5		
		X1	Y1	Z1	X2	Y2	Z2	X3	Y3	Z3	X4	Y4	Z4	X5	Y5	Z5	X6	Y6	Z6	X7	Y7	Z7	X8	Y8	Z8	X9	Y9	Z9	X10	Y10	Z10	X11	Y11	Z11	X12	Y12	Z12	X13	Y13	Z13	X14	Y14	Z14	X15	Y15	Z15	X16	Y16	Z16	X17	Y17	Z17	X18	Y18	Z18	X19	Y19	Z19	X20	Y20	Z20	X21	Y21	Z21	X22	Y22	Z22	X23	Y23	Z23	X24	Y24	Z24	X25	Y25	Z25	X26	Y26	Z26	X27	Y27	Z27	X28	Y28	Z28	X29	Y29	Z29	X30	Y30	Z30	X31	Y31	Z31	X32	Y32	Z32	X33	Y33	Z33	X34	Y34	Z34	X35	Y35	Z35	X36	Y36	Z36

1106	4.42000	404.13315	980.03638	264.89539	240.11729	960.64111	351.62262	371.20782	726.95490	410.65042	373.51248	667.03394	393.62952	305.62939	730.98730	411.00851	296.20627	670.30176	391.53714	366.30615	462.60562	356.48328	380.64151	456.58063	240.63055	438.34576	369.94080	367.45587	457.99829	326.18713	363.08139	389.06345	355.83353	359.63321	399.30301	309.76712	353.78046	488.52679	91.03532	330.80350	499.00256	108.03921	238.23392	565.62549	72.76594	294.87643	363.40015	25.95746	315.39548	350.43539	50.07692	257.31607	391.64368	24.70169	212.42943	400.41592	976.57703	190.11958	230.69765	946.14386	139.94971	279.34293	714.93378	61.29319	249.26323	660.61603	70.71598	225.99841	751.38208	57.07769	188.27519	702.39886	64.06707	95.12712	503.55533	102.60846	86.62103	500.31824	214.60826	151.40457	368.58585	91.29446	141.96410	323.79797	93.64014	89.54745	374.02917	84.01778	89.75511	326.25992	84.89710	102.13753	105.40845	109.37476	78.89233	121.01749	196.36076	145.49237	64.01737	167.24748	-52.90003	92.03072	169.75583	-69.55653	116.24013	122.25875	-34.30309	77.84022	68.49570
1107	4.42400	399.32721	979.34821	263.98538	235.58234	959.99591	351.45471	368.00107	727.05524	410.19843	370.47946	667.04492	393.13394	302.24338	730.58795	410.69250	293.24979	670.05609	391.50519	364.12045	462.44360	356.34286	378.47815	456.45917	240.47115	437.11786	370.38312	367.31290	456.68561	326.50659	362.79837	386.13495	354.69519	358.08182	397.90134	309.82837	353.69513	488.30307	91.45666	330.67990	498.61343	108.34486	238.06882	565.37628	73.44250	294.72430	363.39301	25.95980	315.34457	350.41275	50.06926	257.28238	391.62521	24.72505	212.39995	395.32224	975.92535	189.21365	225.21063	945.61536	139.73798	274.50488	714.21277	61.19776	244.65036	659.83185	70.59512	220.13553	750.29938	56.76698	183.45914	701.26276	63.54982	89.82104	502.79306	102.35944	81.74345	499.50845	214.47063	143.26750	366.76926	89.95457	132.58212	322.16904	92.39515	81.85238	373.86401	83.09274	80.41991	325.83673	84.14792	87.45624	104.47620	107.92136	65.70542	120.55271	195.16124	130.69754	61.85254	164.86961	-67.18035	95.06135	169.75835	-83.71223	119.74993	122.38797	-50.11612	80.42657	68.24827
1108	4.42800	394.42261	978.68365	263.09888	230.92410	959.31549	351.22275	364.66599	727.06628	409.68826	367.34842	667.08136	392.70996	298.91168	730.21887	410.38901	290.07159	669.56360	391.40234	361.89398	462.27026	356.21323	376.13202	456.31342	240.25313	435.47693	370.59958	367.08148	455.21878	326.85928	362.61475	385.86658	355.78772	359.33820	396.47290	309.79114	353.42044	488.03290	91.89931	330.57492	498.26462	108.73877	237.88486	565.17072	74.13675	294.60391	363.40344	25.99460	315.38870	350.35355	49.99479	257.31943	391.58698	24.69386	212.40781	390.19156	975.19885	188.35977	219.68433	945.01440	139.54010	269.62152	713.45312	61.10299	239.90550	658.88220	70.38432	214.53087	749.26282	56.48663	178.59650	700.11475	62.98238	84.54995	501.95523	102.21421	76.99433	498.58020	214.53674	135.27629	365.03391	88.62228	123.38916	320.53476	91.15724	73.65159	373.40247	82.44684	71.19223	325.41272	83.42209	73.06029	103.69889	106.51695	52.60892	120.11385	193.89552	115.19008	59.74814	162.81378	-81.07667	98.10316	169.83664	-97.42698	123.20514	122.65806	-65.35213	83.22345	68.07515
1109	4.43200	389.60522	977.89624	262.27853	226.47208	958.56012	351.03656	361.22937	727.02631	409.21902	364.16864	667.03784	392.26212	293.88568	728.85760	408.70786	286.97595	669.02850	391.42422	359.63965	462.14917	356.04562	373.83865	456.21112	240.06316	433.59988	370.74826	366.88742	453.64389	327.11118	362.35410	382.55219	354.29678	357.64789	395.13461	309.80957	353.49576	487.78873	92.33556	330.48398	497.90317	109.14049	237.74733	564.94940	74.87698	294.47910	363.41010	25.96547	315.39600	350.30124	49.88347	257.35263	391.55350	24.67985	212.42259	384.99811	974.47729	187.48589	214.23839	944.41821	139.22392	264.69586	712.64099	60.97757	235.15578	657.92096	70.19360	209.25735	748.30402	56.24168	173.69778	698.91730	62.55009	79.31886	501.00391	102.04789	72.12462	497.49442	214.55103	126.20197	363.10349	88.23843	114.28462	318.95639	90.06600	64.68526	372.57742	82.74634	62.05544	324.97357	82.88390	59.12679	103.07993	105.05939	39.86797	119.83015	192.78635	100.85840	57.96868	160.76698	-94.51202	101.10473	169.97896	-110.78337	126.58907	122.89137	-80.17789	86.07671	67.91400
1110	4.43600	384.71707	977.10028	261.34229	221.89639	957.82245	350.91360	357.68161	726.94946	408.68457	360.46252	666.76923	391.75085	292.01013	729.37079	410.12109	283.58035	668.42426	391.26389	357.22806	461.91647	355.81207	371.39310	456.03519	239.87431	431.75995	370.91528	366.72244	451.96469	327.40689	362.22568	380.84848	354.20886	357.59457	393.42700	309.59988	353.22595	487.44193	92.70415	330.36569	497.53247	109.49867	237.67946	564.71588	75.58459	294.38724	363.37198	25.92963	315.40189	350.24887	49.80280	257.38718	391.53976	24.66818	212.38870	379.81989	973.61249	186.64474	208.85246	943.75775	138.85599	259.78293	711.81268	60.70102	230.49112	657.04248	69.86399	204.38788	747.45428	56.03717	168.81558	697.72229	62.23718	74.28308	500.03748	101.78019	67.23064	496.32141	214.59663	118.20055	361.34393	87.25048	105.34109	317.58395	89.01803	56.82343	372.03705	82.64750	53.57376	324.66183	82.66553	45.16095	102.58967	103.46243	27.30081	119.42939	191.56642	86.83443	56.45221	159.05243	-107.62117	104.12657	170.15720	-123.66611	130.10388	123.18759	-94.70374	88.86983	67.85406
1111	4.44000	379.70737	976.25354	260.52151	217.13921	957.02319	350.68774	354.06894	726.86273	408.17044	357.16306	666.71552	391.36963	288.39474	728.96899	409.88257	280.33890	667.98035	391.17737	353.86325	461.13809	355.17691	368.79755	455.83655	239.67570	429.36447	370.86029	366.42084	450.27301	327.70535	362.04581	380.48581	355.39560	358.92868	391.71021	309.56006	353.01389	487.03290	93.08307	330.21909	497.11023	109.99769	237.58228	564.44049	76.29733	294.31125	363.39703	25.89744	315.39798	350.18106	49.70693	257.40796	391.50085	24.64195	212.40129	374.62198	972.83868	185.78815	203.45134	943.09857	138.59770	254.83691	711.03906	60.39433	225.75549	656.15668	69.44158	199.81270	746.65631	55.84887	163.89941	696.59448	61.87786	69.18845	499.06284	101.60849	62.42558	495.13080	214.60402	110.32715	359.67630	86.32169	96.57021	316.12430	87.98466	49.37471	371.63336	82.28930	45.33132	324.43039	82.38597	31.96486	102.33185	102.30266	15.12704	119.21947	190.42973	73.04333	55.11617	157.22026	-120.23228	107.02222	170.30235	-136.17368	133.41920	123.48032	-108.52258	91.78144	67.74100
1112	4.44400	374.82794	975.45624	259.59576	212.64998	956.27570	350.55682	350.55173	726.82318	407.69095	354.04004	666.72546	391.08432	284.75916	728.47363	409.63666	276.94058	667.35162	391.10864	351.96588	461.33740	355.32730	366.12045	455.62183	239.49467	427.68442	371.23486	366.34177	448.50024	328.00922	361.84885	376.90488	353.82285	357.19788	390.07343	309.52582	353.05438	486.73077	93.57132	330.17596	496.67307	110.44250	237.52357	564.17279	77.13744	294.25610	363.38000	25.89276	315.42563	350.12949	49.64402	257.42407	391.47003	24.62813	212.38078	369.36542	971.96655	184.94405	198.04517	942.45233	138.39467	249.76430	710.27002	59.99820	220.84431	655.17145	69.01873	194.89706	745.65778	55.58073	158.86006	695.46222	61.47235	64.14894	497.91849	101.42396	57.91215	493.98047	214.63802	102.59277	358.10532	85.45281	88.02317	314.75720	87.00227	42.02010	371.27222	81.82732	37.18253	324.24643	81.95625	18.96922	102.05852	101.04469	3.29799	119.11493	189.46193	59.79937	54.02982	155.60648	-132.29166	109.92301	170.51939	-148.22342	136.72682	123.86604	-122.08455	94.63348	67.71496
1113	4.44800	369.80219	974.56622	258.72992	207.87773	955.44891	350.36893	346.88135	726.71594	407.19916	350.54401	666.61627	390.67508	281.15805	728.06390	409.50015	273.46777	666.82257	391.09146	349.24377	461.00665	355.09460	363.41754	455.36356	239.30606	425.06226	371.14093	366.07587	446.62094	328.29871	361.74472	374.85898	353.68643	357.07361	388.29224	309.32001	352.74393	486.37604	94.01994	330.16794	496.20007	110.92470	237.45900	563.83350	77.97482	294.20099	363.35495	25.84206	315.42123	350.11304	49.57906	257.41721	391.42819	24.59431	212.38658	364.09726	971.06091	184.05034	190.96828	942.16724	137.39394	244.59988	709.46259	59.59064	215.96304	654.30548	68.45721	189.66670	744.66620	55.27582	153.73799	694.23438	60.93876	59.15014	496.81146	101.21014	53.25579	492.59268	214.69577	94.99051	356.52682	84.55629	79.66639	313.54816	86.07303	34.76138	370.94376	81.27979	29.13458	324.09714	81.40172	6.36573	102.00616	99.86343	-8.14817	119.05732	188.42795	46.13813	52.74509	153.63152	-144.27132	112.02917	169.86436	-159.93929	139.84662	124.18040	-135.04408	97.40932	67.69067
1114	4.45200	364.78278	973.66003	257.80417	203.05212	954.70483	349.98181	343.60437	726.18481	406.82034	347.01312	666.47247	390.23062	277.31659	727.53632	409.31094	269.94366	666.36127	391.06113	346.46524	460.67059	354.90695	360.54361	455.06146	239.05600	422.78696	371.30115	365.90189	444.58832	328.54688	361.64362	374.27234	354.86420	358.44547	386.48785	309.44455	352.69901	485.95905	94.55990	330.14832	495.71939	111.44566	237.37473	563.46838	78.77272	294.13745	363.37076	25.82486	315.43643	350.03403	49.48256	257.44806	391.43854	24.61635	212.35019	358.78790	970.17554	183.21518	185.70425	941.42194	137.21248	239.29727	708.71735	59.10687	210.95847	653.42657	67.84798	184.28424	743.67139	54.97952	148.49066	693.01428	60.43857	53.16768	495.45239	101.04665	48.60745	491.20941	214.60355	87.50455	354.99933	83.67020	71.49939	312.31888	85.13839	27.60029	370.63794	80.66495	21.19465	323.96994	80.74774	-5.73794	102.13458	98.85752	-19.31723	118.94819	187.51569	33.43023	51.80311	152.02205	-155.17789	115.15572	171.00131	-171.10616	142.85597	124.49487	-147.50603	100.17012	67.68205
